<mxfile host="app.diagrams.net" modified="2024-03-06T04:17:44.379Z" agent="Mozilla/5.0 (Windows NT 10.0; Win64; x64) AppleWebKit/537.36 (KHTML, like Gecko) Chrome/122.0.0.0 Safari/537.36 Edg/122.0.0.0" version="23.1.5" etag="oEX3xtNbyVx1Y9b-0RPI" type="github">
  <diagram name="ページ1" id="aXHleUiduTxEvC2QPzo_">
    <mxGraphModel>
      <root>
        <mxCell id="0" />
        <mxCell id="1" parent="0" />
      </root>
    </mxGraphModel>
  </diagram>
</mxfile>
